<?xml version="1.0" encoding="utf-8"?>
<!DOCTYPE svg PUBLIC "-//W3C//DTD SVG 1.1//EN" "http://www.w3.org/Graphics/SVG/1.1/DTD/svg11.dtd">
<svg version="1.1" id="icon" xmlns="http://www.w3.org/2000/svg" xmlns:xlink="http://www.w3.org/1999/xlink" x="0px" y="0px"
	 width="80px" height="80px" viewBox="0 0 80 80" enable-background="new 0 0 80 80" xml:space="preserve">
<circle fill="#333333" cx="40" cy="40" r="40"/>
<g>
	<path fill="#FFFFFF" d="M23.944,36.076c1.077,0.976,1.616,2.333,1.616,4.072s-0.522,3.115-1.568,4.127
		c-1.045,1.014-2.646,1.521-4.8,1.521H15.48V34.612h3.84C21.326,34.612,22.867,35.1,23.944,36.076z M23.656,40.196
		c0-2.56-1.467-3.84-4.4-3.84h-1.888v7.664h2.096c1.354,0,2.392-0.322,3.112-0.968C23.296,42.406,23.656,41.455,23.656,40.196z"/>
	<path fill="#FFFFFF" d="M35.849,34.612v1.776H29.88v2.96h5.36v1.68h-5.36v2.992h6.16v1.776h-8.048V34.612H35.849z"/>
	<path fill="#FFFFFF" d="M40.344,45.796h-1.888V34.612H41.4l3.376,7.024l3.376-7.024h2.928v11.184h-1.888V37.06l-3.904,7.76h-1.056
		l-3.888-7.76V45.796z"/>
	<path fill="#FFFFFF" d="M63.544,44.252c-1.131,1.104-2.528,1.656-4.192,1.656s-3.062-0.553-4.191-1.656
		c-1.131-1.104-1.696-2.48-1.696-4.128c0-1.648,0.565-3.024,1.696-4.128c1.13-1.104,2.527-1.656,4.191-1.656
		s3.062,0.552,4.192,1.656s1.696,2.48,1.696,4.128C65.24,41.771,64.675,43.148,63.544,44.252z M62.16,37.252
		c-0.763-0.789-1.699-1.184-2.809-1.184s-2.045,0.395-2.808,1.184c-0.763,0.79-1.145,1.747-1.145,2.872
		c0,1.126,0.382,2.083,1.145,2.872s1.698,1.184,2.808,1.184s2.046-0.395,2.809-1.184c0.762-0.789,1.144-1.746,1.144-2.872
		C63.304,38.999,62.922,38.042,62.16,37.252z"/>
</g>
</svg>
