<?xml version="1.0" encoding="utf-8"?>
<!DOCTYPE svg PUBLIC "-//W3C//DTD SVG 1.1//EN" "http://www.w3.org/Graphics/SVG/1.1/DTD/svg11.dtd">
<svg version="1.1" id="logo" xmlns="http://www.w3.org/2000/svg" xmlns:xlink="http://www.w3.org/1999/xlink" x="0px" y="0px"
	 width="130px" height="80px" viewBox="0 0 130 80" enable-background="new 0 0 130 80" xml:space="preserve">
<g id="nite">
	<g>
		<path fill="#222222" d="M54.55,61.098h4.883V33.224H54.55V61.098z M96.716,33.224c-8.853,0-13.276,4.499-13.276,13.497
			c0,9.418,4.672,14.377,14.016,14.377c3.502,0,6.602-0.267,9.046-0.789v-4.195c-2.444,0.522-5.019,0.789-7.462,0.789
			c-7.146,0-10.717-2.824-10.717-8.471h18.66C108.618,38.293,105.195,33.224,96.716,33.224z M102.521,44.378H88.32
			c0.316-4.841,2.853-7.261,7.604-7.261C100.566,37.117,102.768,39.538,102.521,44.378z M36.926,33.224
			c-3.396,0-6.775,1.175-10.135,3.526l-0.871-3.526h-3.299V61.1h4.883V40.775c2.517-2.333,5.173-3.5,7.971-3.5
			c4.1,0,6.15,2.053,6.15,6.155v17.666h4.883V43.511C46.507,36.653,43.313,33.224,36.926,33.224z M70.664,28.129h-3.062v25.273
			c0,4.969,2.319,7.695,6.969,7.695h3.965v-4.195h-2.697c-2.232,0-3.354-1.287-3.354-3.867V37.17h6.051v-3.946h-6.818L70.664,28.129
			z M58.949,20.23c-1.001,3.137-3.575,4.705-5.005,5.986c-1.431,1.284-0.143,3.707,3.003,3.992s4.575-5.986,4.004-7.982
			C60.379,20.23,59.95,17.095,58.949,20.23z"/>
	</g>
</g>
</svg>
