<?xml version="1.0" encoding="utf-8"?>
<!DOCTYPE svg PUBLIC "-//W3C//DTD SVG 1.1//EN" "http://www.w3.org/Graphics/SVG/1.1/DTD/svg11.dtd">
<svg version="1.1" id="logo" xmlns="http://www.w3.org/2000/svg" xmlns:xlink="http://www.w3.org/1999/xlink" x="0px" y="0px"
	 width="130px" height="80px" viewBox="0 0 130 80" enable-background="new 0 0 130 80" xml:space="preserve">
<g id="frequency">
	<g>
		<path fill="#222222" d="M74.907,33.875c-1.259,0.031-2.492,2.634-2.835,4.845C74.777,38.518,76.456,33.834,74.907,33.875z
			 M39.767,30.847c0.71-2.144-0.545-2.741-1.635-0.547c-0.511,1.028-2.271,4.385-2.815,8.222
			C37.496,36.877,39.222,32.492,39.767,30.847z M57.199,35.781c-1.029,1.584-1.873,4.863-1.09,6.031
			c0.427,0.636,1.322-0.188,1.635-0.549c0.594-2.583,1.328-5.088,1.634-6.031C59.154,34.167,58.232,34.188,57.199,35.781z
			 M52.199,33.875c-1.26,0.031-2.491,2.635-2.836,4.845C52.067,38.518,53.745,33.834,52.199,33.875z M34.442,50.57
			c0.966,0.016,0.168-5.66-0.123-8.209C33.41,46.686,33.272,50.55,34.442,50.57z M116.413,39.353L65.88,2.266
			c-0.484-0.355-1.277-0.355-1.761,0L13.585,39.353c-0.485,0.355-0.485,0.937,0,1.292l50.534,37.09c0.485,0.354,1.277,0.354,1.761,0
			l50.535-37.09C116.898,40.29,116.898,39.708,116.413,39.353z M97.508,42.908c-0.541,1.906-1.463,4.436-2.324,6.02
			c-2.771,5.096-7.789,0.486-2.033-3.824c0.695-0.521,1.572-1.235,2.181-1.646c0.241-0.76,0.263-0.684,0.427-1.252
			c-0.785,1.098-2.162,1.109-2.734,0.756c-0.596-0.369-1.024-1.258-0.961-2.245c-2.018,2.374-3.635,3.043-5.101,2.317
			c-0.428-0.213-1.222-0.85-1.438-2.318c-0.836,1.96-2.198,2.523-3.269,2.193c-1.919-0.592-0.692-4.257,0-6.03
			c0.604-1.548,0.69-2.745-0.229-2.361c-1.271,0.529-2.324,2.742-2.858,4.074c-0.519,2.328-0.724,4.317-0.724,4.317l-1.879,0.049
			c0,0,0.181-1.256,0.478-2.86c-1.733,2.721-4.294,3.397-5.64,2.653c-0.584-0.324-0.916-0.634-1.131-1.484
			c-0.847,2.184-2.715,2.088-3.269,1.644c-0.584-0.47-0.524-0.901-0.546-1.644c-0.904,2.368-2.743,2.144-3.268,1.644
			c-0.504-0.479-0.847-1.009-0.907-1.63c-0.41,0.923-0.98,1.931-2.361,1.63c0.533,0.442,1.419,1.567,1.635,3.29
			c0.409,3.279-2.926,5.046-4.358,3.29c-0.978-1.199-0.354-3.458,0.302-6.804c0.018-0.093,0.04-0.188,0.058-0.281
			c-0.474,0.49-1.147,0.895-1.899,0.63c-0.507-0.181-1.422-0.608-1.472-2.722c-1.729,2.54-4.396,3.322-5.705,2.597
			c-1.011-0.56-1.443-2.007-1.047-4.267c-0.683,0.715-1.863,1.448-2.766,0.977c-1.541-0.804,1.634-4.934,0-4.934
			c-0.739,0-1.504,1.471-2.179,3.289c-0.606,2.596-1.089,4.934-1.089,4.934h-1.634c0,0,0.23-1.057,0.545-2.74
			c-0.565,0.85-2.777,3.186-5.422,1.93c3.244,7.392,0.491,8.86-0.025,9.035c-1.612,0.549-2.724-1.143-2.724-3.838
			c0-4.387,1.089-8.772,2.724-14.255c1.634-5.482,4.502-4.948,4.502-4.948c0.945,0.013,2.479,1.626,1.49,4.948
			c-1.634,5.482-5.571,5.989-5.571,5.989c-0.142,0.568-0.289,1.118-0.42,1.687c0.545,0,3.405,1.646,5.583-1.645
			c0.545-2.193,0.953-4.387,1.498-5.482c0,0,0.591-0.355,1.635-0.549c-0.29,0.709-0.388,1.708-0.633,2.55
			c0.536-1.011,1.676-2.836,2.812-2.55c2.179,0.549-0.299,4.848,0,5.483c0.215,0.456,0.798,0.644,1.827-0.624
			c0.09-0.353,0.206-0.72,0.336-1.119c0.915-2.821,3.176-4.324,4.918-3.741c1.635,0.549,1.5,4.728-1.089,6.032
			c-1.09,0.548-2.014,0.33-2.455,0.148c-0.125,1.12-0.094,1.981,0.275,2.594c0.86,1.422,3.406-0.779,4.632-2.211
			c0.01-0.39,0.033-0.529,0.102-1.024c0.51-3.638,2.417-5.651,3.983-5.537c1.001,0.072,1.531,1.202,1.635,1.645
			c0.593-0.17,1.655-0.229,1.655-0.229c-0.547,1.057-1.869,5.994-2.2,7.356c0.678,0.39,1.811,0.664,2.724-1.646
			c0.067-0.663,0.331-1.648,0.545-2.741c0.583-2.977,1.089-3.838,1.089-3.838l2.179-0.548c0,0-1.076,3.047-1.634,5.482
			c-0.572,2.5-0.469,3.839,0.545,3.839c0.62,0,1.293-1.317,1.527-2.259c0.084-0.627,0.229-1.371,0.416-2.318
			c0.584-2.976,1.324-4.196,1.324-4.196l2.178-0.548c0,0-1.074,3.047-1.633,5.482c-0.574,2.5-0.791,3.839,0,3.839
			c0.566,0,1.17-0.947,1.448-1.586c-0.18-0.969-0.056-2.278,0.544-3.996c0.866-2.484,2.952-4.056,4.721-3.554
			c1.715,0.489,1.681,3.992-0.715,5.632c-1.172,0.801-2.188,0.543-2.63,0.362c-0.124,1.119-0.114,1.743,0.255,2.353
			c0.92,1.521,3.773-0.487,4.873-1.968c0.448-2.349,1.133-5.122,1.854-6.017c0,0,0.507-0.304,1.635-0.548
			c-0.387,0.943-0.785,2.149-1.09,3.29c0.541-1.052,1.66-2.768,2.723-3.29c1.42-0.699,2.405,0.914,2.26,2.358
			c-0.148,1.444-1.797,4.633-1.713,5.866c0.076,1.184,1.766,1.428,2.723-1.096c-0.019-0.432-0.002-1.054,0.082-1.591
			c0.57-3.629,2.711-5.651,4.275-5.538c1.252,0.091,1.367,1.9,1.367,1.9l-0.277,0.842c-0.103-1.441-1.021-1.784-2.18,0
			c-1.025,1.584-2.062,4.479-1.052,5.996c0.764,1.146,3.914,0.058,4.704-3.043l0.16-0.76c0.584-2.976,1.635-4.386,1.635-4.386
			l1.634-0.549c0,0-1.05,2.811-1.608,5.247c-0.572,2.499-0.492,4.075,0.521,4.075c0.75,0,1.351-1.006,1.635-2.742
			c0.614-2.867,1.636-6.031,1.636-6.031l1.633-0.549c0,0-0.832,3.937-1.4,6.368c-0.049,0.207-0.271,1.223-0.624,2.571
			c2.09-1.585,2.569-2.359,2.569-2.359c0.229-0.039,0.545,0,0.545,0C100.714,39.971,99.82,41.001,97.508,42.908z M91.518,50.037
			c0.896,0.559,2.316-2.198,3.269-4.936C92.195,47.213,90.605,49.473,91.518,50.037z M59.377,42.908
			c-0.525,2.375-0.98,4.804-0.545,5.482c0.72,1.123,2.185-0.435,2.112-2.431C60.872,43.966,59.377,42.908,59.377,42.908z"/>
	</g>
</g>
</svg>
