<?xml version="1.0" encoding="utf-8"?>
<!DOCTYPE svg PUBLIC "-//W3C//DTD SVG 1.1//EN" "http://www.w3.org/Graphics/SVG/1.1/DTD/svg11.dtd">
<svg version="1.1" id="logo" xmlns="http://www.w3.org/2000/svg" xmlns:xlink="http://www.w3.org/1999/xlink" x="0px" y="0px"
	 width="130px" height="80px" viewBox="0 0 130 80" enable-background="new 0 0 130 80" xml:space="preserve">
<g id="unity">
	<g>
		<path fill="#222222" d="M70.79,24.012c0.649,0.594,1.509,0.896,2.556,0.896c1.025,0,1.879-0.29,2.535-0.859
			c0.631-0.544,1.023-1.18,1.171-1.887c0.085-0.409,0.126-0.943,0.126-1.684c0-0.934-0.199-1.759-0.597-2.457
			c-0.338-0.597-1.187-1.597-3.05-1.597c-1.182,0-2.076,0.292-2.738,0.893c-0.594,0.541-0.969,1.165-1.109,1.846
			c-0.088,0.407-0.127,0.885-0.127,1.504c0,0.622,0.039,1.101,0.125,1.495C69.823,22.85,70.197,23.475,70.79,24.012z
			 M109.177,26.362v6.119h1.423l-3.947,10.705l-3.973-10.705h1.459v-6.119H89.711v-5.757l-6.881,1.392v4.366H67.418v6.119h2.467
			v15.534h-6.271V35.23c0-3.04-0.702-5.381-2.086-6.963c-1.446-1.648-3.7-2.485-6.698-2.485c-2.586,0-5.096,0.68-7.492,2.024
			l-0.38-1.444h-7.94v6.119h2.467v15.544h-6.271V26.362h-9.35v6.119h2.467v13.244c-2.031,1.686-4.099,2.508-6.3,2.508
			c-1.591,0-2.062-0.377-2.168-0.492c-0.121-0.133-0.515-0.696-0.515-2.424V26.362h-9.35v6.119h2.466v12.876
			c0,3.115,0.67,5.389,2.049,6.949c1.419,1.604,3.74,2.416,6.899,2.416c2.716,0,5.353-0.771,7.868-2.307l0.468,1.729h21.083v-6.119
			h-2.468V34.333c1.956-1.384,3.932-2.06,6.012-2.06c0.911,0,1.583,0.173,1.845,0.473c0.153,0.176,0.51,0.768,0.51,2.443v12.836
			h-2.465v6.117H79.23v-6.117h-2.467V32.48h6.063v14.454c0,1.565,0.147,2.828,0.455,3.858c0.245,0.829,0.61,1.526,1.09,2.081
			c0.494,0.566,1.157,1.025,1.979,1.366c0.783,0.325,1.717,0.481,2.854,0.481l5.351,0.004l0.018-6.32l-4.723-0.01
			c-0.058-0.194-0.144-0.627-0.144-1.463V32.48h5.827l7.622,20.187l-1.607,4.344c-0.03,0.085-0.062,0.151-0.088,0.21
			c-0.065,0.008-0.144,0.018-0.235,0.023l-4.26,0.363v5.955h5.701c1.41,0,2.529-0.424,3.327-1.261
			c0.606-0.631,1.125-1.524,1.584-2.739l10.196-27.083h2.226v-6.118H109.177z"/>
	</g>
</g>
</svg>
